<?xml version="1.0" encoding="UTF-8" standalone="no"?>
<!-- Generator: Adobe Illustrator 19.1.0, SVG Export Plug-In . SVG Version: 6.00 Build 0)  -->

<svg
   xmlns:dc="http://purl.org/dc/elements/1.1/"
   xmlns:cc="http://creativecommons.org/ns#"
   xmlns:rdf="http://www.w3.org/1999/02/22-rdf-syntax-ns#"
   xmlns:svg="http://www.w3.org/2000/svg"
   xmlns="http://www.w3.org/2000/svg"
   xmlns:sodipodi="http://sodipodi.sourceforge.net/DTD/sodipodi-0.dtd"
   xmlns:inkscape="http://www.inkscape.org/namespaces/inkscape"
   version="1.1"
   id="Capa_1"
   x="0px"
   y="0px"
   viewBox="0 0 353.708 353.708"
   style="enable-background:new 0 0 353.708 353.708;"
   xml:space="preserve"
   sodipodi:docname="profile.svg"
   inkscape:version="0.92.4 (5da689c313, 2019-01-14)"><metadata
   id="metadata45"><rdf:RDF><cc:Work
       rdf:about=""><dc:format>image/svg+xml</dc:format><dc:type
         rdf:resource="http://purl.org/dc/dcmitype/StillImage" /></cc:Work></rdf:RDF></metadata><defs
   id="defs43" /><sodipodi:namedview
   pagecolor="#ffffff"
   bordercolor="#666666"
   borderopacity="1"
   objecttolerance="10"
   gridtolerance="10"
   guidetolerance="10"
   inkscape:pageopacity="0"
   inkscape:pageshadow="2"
   inkscape:window-width="1296"
   inkscape:window-height="704"
   id="namedview41"
   showgrid="false"
   inkscape:zoom="1.334434"
   inkscape:cx="146.36032"
   inkscape:cy="173.52993"
   inkscape:window-x="70"
   inkscape:window-y="27"
   inkscape:window-maximized="1"
   inkscape:current-layer="layer1" />

<g
   id="g10">
</g>
<g
   id="g12">
</g>
<g
   id="g14">
</g>
<g
   id="g16">
</g>
<g
   id="g18">
</g>
<g
   id="g20">
</g>
<g
   id="g22">
</g>
<g
   id="g24">
</g>
<g
   id="g26">
</g>
<g
   id="g28">
</g>
<g
   id="g30">
</g>
<g
   id="g32">
</g>
<g
   id="g34">
</g>
<g
   id="g36">
</g>
<g
   id="g38">
</g>
<g
   inkscape:groupmode="layer"
   id="layer1"
   inkscape:label="bg"><g
     transform="translate(3.6273382e-6,-0.74937742)"
     id="g8"
     style="fill:#000080"><g
       id="g6"
       style="fill:#000080"><path
         inkscape:connector-curvature="0"
         style="fill:#000080"
         d="M 343.297,313.344 H 10.411 C 4.676,313.344 0,318.02 0,323.755 c 0,5.717 4.676,10.411 10.411,10.411 h 332.886 c 5.735,0 10.411,-4.676 10.411,-10.411 10e-4,-5.735 -4.676,-10.411 -10.411,-10.411 z"
         id="path2" /><path
         inkscape:connector-curvature="0"
         style="fill:#000080"
         d="m 65.554,287.246 c -0.6,1.306 -0.953,2.735 -0.953,4.253 0,5.735 4.676,10.411 10.411,10.411 h 203.685 c 5.735,0 10.411,-4.694 10.411,-10.411 0,-1.518 -0.37,-2.947 -0.97,-4.253 -6.794,-43.003 -37.85,-77.712 -78.7,-90.134 28.251,-14.452 48.049,-46.938 48.049,-84.753 0,-51.172 -36.174,-92.817 -80.641,-92.817 -44.485,0 -80.659,41.644 -80.659,92.817 0,37.815 19.816,70.283 48.067,84.735 -40.85,12.44 -71.906,47.131 -78.7,90.152 z M 113.85,112.341 c 0,-41.45 28.268,-75.171 63.013,-75.171 34.745,0 62.995,33.721 62.995,75.171 0,41.45 -28.251,75.171 -62.995,75.171 -34.744,0 -63.013,-33.721 -63.013,-75.171 z m 63.013,97.14 c 44.308,0 81.205,30.562 91.829,71.607 H 85.018 c 10.622,-41.045 47.519,-71.607 91.845,-71.607 z"
         id="path4" /></g></g></g><g
   inkscape:groupmode="layer"
   id="layer2"
   inkscape:label="layer1" /></svg>