<?xml version="1.0" encoding="UTF-8" standalone="no"?>
<svg
   xmlns:dc="http://purl.org/dc/elements/1.1/"
   xmlns:cc="http://creativecommons.org/ns#"
   xmlns:rdf="http://www.w3.org/1999/02/22-rdf-syntax-ns#"
   xmlns:svg="http://www.w3.org/2000/svg"
   xmlns="http://www.w3.org/2000/svg"
   xmlns:sodipodi="http://sodipodi.sourceforge.net/DTD/sodipodi-0.dtd"
   xmlns:inkscape="http://www.inkscape.org/namespaces/inkscape"
   id="Capa_1"
   enable-background="new 0 0 512 512"
   height="512"
   viewBox="0 0 512 512"
   width="512"
   version="1.1"
   sodipodi:docname="shopping-bag-icon.svg"
   inkscape:version="0.92.4 (5da689c313, 2019-01-14)">
  <metadata
     id="metadata21">
    <rdf:RDF>
      <cc:Work
         rdf:about="">
        <dc:format>image/svg+xml</dc:format>
        <dc:type
           rdf:resource="http://purl.org/dc/dcmitype/StillImage" />
      </cc:Work>
    </rdf:RDF>
  </metadata>
  <defs
     id="defs19" />
  <sodipodi:namedview
     pagecolor="#ffffff"
     bordercolor="#666666"
     borderopacity="1"
     objecttolerance="10"
     gridtolerance="10"
     guidetolerance="10"
     inkscape:pageopacity="0"
     inkscape:pageshadow="2"
     inkscape:window-width="1296"
     inkscape:window-height="704"
     id="namedview17"
     showgrid="false"
     inkscape:zoom="0.65186406"
     inkscape:cx="-75.359845"
     inkscape:cy="336.32124"
     inkscape:window-x="70"
     inkscape:window-y="27"
     inkscape:window-maximized="1"
     inkscape:current-layer="layer1" />
  <g
     inkscape:groupmode="layer"
     id="layer1"
     inkscape:label="bg">
    <path
       style="fill:#ffffff;fill-opacity:1;fill-rule:nonzero;stroke:none;stroke-width:2699.05908203;stroke-miterlimit:4;stroke-dasharray:none;stroke-opacity:1"
       id="path98"
       sodipodi:type="arc"
       sodipodi:cx="255.01411"
       sodipodi:cy="220.02919"
       sodipodi:rx="206.1692"
       sodipodi:ry="210.57199"
       sodipodi:start="0"
       sodipodi:end="6.282749"
       d="M 461.18332,220.02919 A 206.1692,210.57199 0 0 1 255.0366,430.60118 206.1692,210.57199 0 0 1 48.844915,220.07513 206.1692,210.57199 0 0 1 254.94665,9.4572104 206.1692,210.57199 0 0 1 461.1833,219.93732 l -206.16919,0.0919 z" />
    <path
       style="fill:#ffffff;stroke:#ffffff;stroke-width:1px;stroke-linecap:butt;stroke-linejoin:miter;stroke-opacity:1"
       d="m 200.13559,416.81356 c 55.05085,82.71186 55.32204,86.23729 55.32204,86.23729 l 52.06779,-86.50848 z"
       id="path106"
       inkscape:connector-curvature="0" />
  </g>
  <g
     inkscape:groupmode="layer"
     id="layer2"
     inkscape:label="Layer 1"
     style="display:inline">
    <g
       transform="translate(-5e-4)"
       id="g14">
      <g
         id="g6">
        <g
           id="g4">
          <path
             style="fill:#020288"
             inkscape:connector-curvature="0"
             d="m 256,512 c -3.4,0 -6.566,-1.728 -8.407,-4.586 L 201.192,435.365 C 155.082,423.587 113.384,396.702 83.421,359.342 52.126,320.321 34.891,271.228 34.891,221.108 c 0,-59.06 23,-114.585 64.762,-156.347 C 141.414,22.999 196.939,0 256,0 c 59.061,0 114.586,22.999 156.348,64.761 41.762,41.762 64.762,97.287 64.762,156.347 0,50.12 -17.235,99.213 -48.53,138.233 -29.963,37.361 -71.661,64.246 -117.771,76.024 l -46.401,72.049 C 262.566,510.272 259.4,512 256,512 Z M 256,20 C 145.107,20 54.89,110.217 54.89,221.107 c 0,93.802 63.674,174.302 154.844,195.761 2.521,0.594 4.714,2.143 6.116,4.32 l 40.15,62.343 40.149,-62.343 c 1.402,-2.178 3.595,-3.727 6.116,-4.32 C 393.435,395.409 457.109,314.909 457.109,221.107 457.11,110.217 366.893,20 256,20 Z"
             id="path2" />
        </g>
      </g>
      <g
         id="g12">
        <ellipse
           style="fill:#ffbdbc"
           cx="256"
           cy="221.10699"
           rx="144.319"
           ry="144.317"
           id="ellipse8" />
        <path
           style="fill:#020288"
           inkscape:connector-curvature="0"
           d="m 316.68,157.959 h -22.645 v -1.64 c 0,-21.089 -17.108,-38.246 -38.135,-38.246 -21.028,0 -38.136,17.157 -38.136,38.246 v 1.64 h -22.443 c -5.523,0 -10,4.477 -10,10 v 100.529 c 0,17.262 14.044,31.306 31.305,31.306 h 78.749 c 17.262,0 31.305,-14.044 31.305,-31.306 V 167.959 c 0,-5.523 -4.477,-10 -10,-10 z m -78.916,-1.64 c 0,-10.061 8.136,-18.246 18.136,-18.246 10,0 18.135,8.186 18.135,18.246 v 1.64 h -36.271 z m 68.916,112.169 c 0,6.234 -5.071,11.306 -11.305,11.306 h -78.749 c -6.234,0 -11.305,-5.071 -11.305,-11.306 v -90.529 h 12.443 v 17.508 c 0,5.523 4.477,10 10,10 5.523,0 10,-4.477 10,-10 v -17.508 h 36.271 v 17.508 c 0,5.523 4.477,10 10,10 5.523,0 10,-4.477 10,-10 v -17.508 h 12.645 z"
           id="path10" />
      </g>
    </g>
  </g>
</svg>
